<?xml version="1.0" encoding="utf-8"?>
<!-- Generator: Adobe Illustrator 28.1.0, SVG Export Plug-In . SVG Version: 6.00 Build 0)  -->
<svg version="1.1" id="Layer_1" xmlns="http://www.w3.org/2000/svg" xmlns:xlink="http://www.w3.org/1999/xlink" x="0px" y="0px"
	 viewBox="0 0 30.7 30" style="enable-background:new 0 0 30.7 30;" xml:space="preserve">
<style type="text/css">
	.st0{fill:#B30B00;}
	.st1{fill:#FFFFFF;}
</style>
<path class="st0" d="M25.7,30H5c-2.8,0-5-2.2-5-5V5c0-2.8,2.2-5,5-5h20.7c2.8,0,5,2.2,5,5v20C30.7,27.8,28.5,30,25.7,30z"/>
<g>
	<path class="st0" d="M5.4,0h19.8c3,0,5.5,2.4,5.5,5.5v19.1c0,3-2.4,5.5-5.5,5.5H5.4c-3,0-5.5-2.4-5.5-5.5V5.5C0,2.4,2.4,0,5.4,0z"
		/>
	<path class="st1" d="M24.5,17.3c-1.4-1.5-5.4-0.9-6.3-0.8c-1.3-1.3-2.3-2.9-2.7-3.4c0.5-1.4,0.9-3.1,0.9-4.6c0-1.4-0.6-2.9-2.1-2.9
		c-0.6,0-1.1,0.3-1.3,0.8c-0.7,1.2-0.4,3.4,0.7,5.8c-0.6,1.7-1.5,4.3-2.7,6.3c-1.5,0.6-4.9,2.1-5.2,3.8c-0.1,0.5,0.1,1.1,0.5,1.3
		c0.4,0.4,0.9,0.5,1.3,0.5c2,0,4-2.8,5.5-5.3c1.2-0.4,3-1,4.8-1.2c2.1,1.9,4,2.2,5,2.2c1.3,0,1.8-0.6,2-1.1
		C25.1,18.4,24.9,17.7,24.5,17.3z M23.2,18.3c-0.1,0.4-0.6,0.8-1.4,0.6c-1.1-0.3-2-0.8-2.8-1.4c0.7-0.1,2.3-0.3,3.4-0.1
		C22.8,17.4,23.3,17.7,23.2,18.3z M13.9,6.8c0.1-0.2,0.3-0.3,0.5-0.3c0.5,0,0.6,0.6,0.6,1.1c-0.1,1.2-0.3,2.4-0.7,3.4
		C13.5,8.9,13.6,7.4,13.9,6.8z M13.8,17.6c0.5-0.9,1.1-2.5,1.2-3.1c0.5,0.9,1.3,1.8,1.7,2.3C16.8,16.8,15.1,17.1,13.8,17.6z
		 M10.5,19.8c-1.3,2.1-2.6,3.4-3.4,3.4c-0.1,0-0.3,0-0.4-0.1c-0.1-0.2-0.2-0.4-0.1-0.6C6.8,21.8,8.3,20.8,10.5,19.8z"/>
</g>
</svg>
