<?xml version="1.0" encoding="utf-8"?>
<!-- Generator: Adobe Illustrator 28.1.0, SVG Export Plug-In . SVG Version: 6.00 Build 0)  -->
<svg version="1.1" id="Layer_1" xmlns="http://www.w3.org/2000/svg" xmlns:xlink="http://www.w3.org/1999/xlink" x="0px" y="0px"
	 viewBox="0 0 30.7 30" style="enable-background:new 0 0 30.7 30;" xml:space="preserve">
<style type="text/css">
	.st0{fill:#B30B00;}
	.st1{fill:#FFFFFF;}
</style>
<path class="st0" d="M25.7,29.9H5.1c-2.8,0-5-2.2-5-5V5c0-2.8,2.2-5,5-5h20.6c2.8,0,5,2.2,5,5v19.9C30.7,27.7,28.5,29.9,25.7,29.9z"
	/>
<g>
	<path class="st0" d="M5.5,0h19.7c3,0,5.5,2.4,5.5,5.5v19c0,3-2.4,5.5-5.5,5.5H5.5c-3,0-5.5-2.4-5.5-5.5v-19C0.1,2.4,2.5,0,5.5,0z"
		/>
	<path class="st1" d="M24.5,17.2c-1.4-1.5-5.4-0.9-6.3-0.8c-1.3-1.3-2.3-2.9-2.7-3.4c0.5-1.4,0.9-3.1,0.9-4.6c0-1.4-0.6-2.9-2.1-2.9
		c-0.6,0-1.1,0.3-1.3,0.8c-0.7,1.2-0.4,3.4,0.7,5.8c-0.6,1.7-1.5,4.3-2.7,6.3c-1.5,0.6-4.9,2.1-5.2,3.8c-0.1,0.5,0.1,1.1,0.5,1.3
		C6.8,23.9,7.3,24,7.7,24c2,0,4-2.8,5.5-5.3c1.2-0.4,3-1,4.8-1.2c2.1,1.9,4,2.2,5,2.2c1.3,0,1.8-0.6,2-1.1
		C25.1,18.3,24.9,17.6,24.5,17.2z M23.2,18.2c-0.1,0.4-0.6,0.8-1.4,0.6c-1.1-0.3-2-0.8-2.8-1.4c0.7-0.1,2.3-0.3,3.4-0.1
		C22.8,17.3,23.3,17.6,23.2,18.2z M14,6.8c0.1-0.2,0.3-0.3,0.5-0.3C15,6.5,15,7.1,15,7.6C15,8.8,14.8,10,14.4,11
		C13.6,8.9,13.7,7.4,14,6.8z M13.9,17.5c0.5-0.9,1.1-2.5,1.2-3.1c0.5,0.9,1.3,1.8,1.7,2.3C16.8,16.7,15.1,17,13.9,17.5z M10.6,19.7
		c-1.3,2.1-2.6,3.4-3.4,3.4c-0.1,0-0.3,0-0.4-0.1c-0.1-0.2-0.2-0.4-0.1-0.6C6.9,21.7,8.4,20.7,10.6,19.7z"/>
</g>
</svg>
