<?xml version="1.0" encoding="utf-8"?>
<!-- Generator: Adobe Illustrator 28.1.0, SVG Export Plug-In . SVG Version: 6.00 Build 0)  -->
<svg version="1.1" id="Warstwa_1" xmlns="http://www.w3.org/2000/svg" xmlns:xlink="http://www.w3.org/1999/xlink" x="0px" y="0px"
	 viewBox="0 0 30.8 30" style="enable-background:new 0 0 30.8 30;" xml:space="preserve">
<style type="text/css">
	.st0{clip-path:url(#SVGID_00000127749931416230877150000005705541173781707402_);}
	.st1{clip-path:url(#SVGID_00000063626785838550342460000009529829162653243576_);}
	.st2{enable-background:new    ;}
	.st3{fill:#FFFFFF;}
</style>
<g id="Layer_1">
	<g>
		<g>
			<defs>
				<path id="SVGID_1_" d="M25.8,30H5c-2.8,0-5-2.2-5-5V5c0-2.8,2.2-5,5-5h20.8c2.8,0,5,2.2,5,5v20C30.8,27.8,28.5,30,25.8,30z"/>
			</defs>
			<clipPath id="SVGID_00000070812833301059840680000002474221669112762792_">
				<use xlink:href="#SVGID_1_"  style="overflow:visible;"/>
			</clipPath>
			
				<g id="Obraz_x5F_AI.psd_00000127040473465399666590000001288174557972530071_" style="clip-path:url(#SVGID_00000070812833301059840680000002474221669112762792_);">
				<g>
					<defs>
						<rect id="SVGID_00000068639047355546239470000004878834213657374091_" width="30.8" height="30"/>
					</defs>
					<clipPath id="SVGID_00000026164541770168439220000001905518545767424661_">
						<use xlink:href="#SVGID_00000068639047355546239470000004878834213657374091_"  style="overflow:visible;"/>
					</clipPath>
					<g style="clip-path:url(#SVGID_00000026164541770168439220000001905518545767424661_);">
						<g id="Obraz_x5F_AI.psd" class="st2">
							
								<image style="overflow:visible;" width="240" height="234" id="Obraz_x5F_AI" xlink:href="EA86486F.png"  transform="matrix(0.1282 0 0 0.1282 0 0)">
							</image>
						</g>
					</g>
				</g>
			</g>
		</g>
	</g>
</g>
<g id="Warstwa_3">
	<path id="_256" class="st3" d="M24.7,9c-1.6-1.8-3.9-2.7-6.3-2.7c-2.3,0-4.7,1-6.2,2.6c-0.3,0-0.6-0.1-0.8-0.1
		C6.8,8.8,4,12.6,4,16.2c0,1.9,0.8,3.8,2.1,5.2c1.4,1.5,3.3,2.3,5.3,2.3h7.1c4.8,0,8.7-3.9,8.7-8.8C27.1,12.8,26.2,10.7,24.7,9z
		 M11.2,22.5c-3.4,0-6.1-2.8-6.1-6.2s2.7-6.1,6.1-6.1c1.5,0,3,0.6,4.1,1.6l0,0l2.6,2.6c0.4,0.4,0.4,1.1,0,1.6s-1.1,0.4-1.6,0
		l-2.5-2.6c-1.6-1.4-4.1-1.2-5.5,0.4c-0.6,0.7-0.9,1.6-0.9,2.6c0,2.2,1.8,4,4,4h0.5l0,0c0.7,1,2.7,2.2,2.7,2.2h-3.4V22.5z
		 M23.8,20.3c-1.4,1.4-3.3,2.2-5.3,2.3c-1.9,0-3.8-0.8-5.3-2.3l-3.4-3.4c-0.4-0.4-0.4-1.1,0-1.6c0.2-0.2,0.5-0.3,0.8-0.3
		s0.6,0.1,0.8,0.3l3.3,3.3c1.1,1.1,2.4,1.7,3.7,1.7c1.4,0,2.7-0.6,3.7-1.6s1.5-2.4,1.5-3.8c0-2.9-2.4-5.2-5.3-5.3
		c-1.1,0-2,0.2-2.9,0.8c0,0-0.3-0.2-0.5-0.3s-0.3-0.2-0.5-0.3s-0.6-0.3-0.9-0.4c-0.1,0-0.2-0.1-0.2-0.1l0,0c1.4-1.3,3.1-1.9,5-1.9
		c4.1,0,7.4,3.3,7.4,7.4C25.9,17,25.2,18.9,23.8,20.3L23.8,20.3z"/>
</g>
</svg>
