<?xml version="1.0" encoding="utf-8"?>
<!-- Generator: Adobe Illustrator 28.1.0, SVG Export Plug-In . SVG Version: 6.00 Build 0)  -->
<svg version="1.1" id="Layer_1" xmlns="http://www.w3.org/2000/svg" xmlns:xlink="http://www.w3.org/1999/xlink" x="0px" y="0px"
	 viewBox="0 0 30.8 30" style="enable-background:new 0 0 30.8 30;" xml:space="preserve">
<style type="text/css">
	.st0{fill:#FF9A00;}
	.st1{fill:#330000;}
</style>
<g id="Surfaces">
	<g id="Drawing_Surface">
		<g id="Outline_no_shadow">
			<path class="st0" d="M5,0h20.8c2.8,0,5,2.2,5,5v20c0,2.8-2.2,5-5,5H5c-2.8,0-5-2.2-5-5V5C0,2.2,2.2,0,5,0z"/>
		</g>
	</g>
</g>
<g id="Outlined_Mnemonics_Logos">
	<g id="Ai">
		<path class="st1" d="M14.9,18h-4.8l-1,3c0,0.1-0.1,0.2-0.2,0.2H6.5c-0.1,0-0.2-0.1-0.1-0.2l4.1-11.9c0-0.1,0.1-0.3,0.1-0.4
			c0.1-0.3,0.1-0.6,0.1-0.8c0-0.1,0-0.1,0.1-0.1l0,0h3.3c0.1,0,0.2,0,0.2,0.1L19,21c0,0.1,0,0.2-0.1,0.2h-2.7
			c-0.1,0-0.2-0.1-0.2-0.1L14.9,18z M10.9,15.4h3.3c-0.1-0.3-0.2-0.6-0.3-0.9c-0.1-0.3-0.2-0.7-0.3-1.1c-0.1-0.4-0.2-0.8-0.4-1.2
			c-0.1-0.4-0.2-0.8-0.3-1.1c-0.1-0.4-0.2-0.7-0.3-1l0,0c-0.1,0.6-0.3,1.1-0.4,1.7c-0.2,0.6-0.4,1.3-0.6,1.9
			C11.3,14.3,11.1,14.9,10.9,15.4L10.9,15.4z"/>
		<path class="st1" d="M21.8,9.9c-0.4,0-0.8-0.2-1.1-0.4c-0.3-0.3-0.4-0.7-0.4-1.2c0-0.4,0.2-0.8,0.5-1.1c0.3-0.3,0.7-0.4,1.1-0.4
			c0.5,0,0.9,0.2,1.2,0.4c0.3,0.3,0.4,0.7,0.4,1.1c0,0.4-0.1,0.9-0.4,1.2C22.6,9.7,22.2,9.9,21.8,9.9z M20.3,21v-9.9
			c0-0.1,0.1-0.2,0.2-0.2H23c0.1,0,0.2,0.1,0.2,0.2V21c0,0.1-0.1,0.2-0.2,0.2h-2.5C20.4,21.2,20.3,21.1,20.3,21z"/>
	</g>
</g>
</svg>
