<?xml version="1.0" encoding="utf-8"?>
<!-- Generator: Adobe Illustrator 28.1.0, SVG Export Plug-In . SVG Version: 6.00 Build 0)  -->
<svg version="1.1" id="Layer_1" xmlns="http://www.w3.org/2000/svg" xmlns:xlink="http://www.w3.org/1999/xlink" x="0px" y="0px"
	 viewBox="0 0 30.7 30" style="enable-background:new 0 0 30.7 30;" xml:space="preserve">
<style type="text/css">
	.st0{fill:#49021F;}
	.st1{fill:#FF3366;}
</style>
<g id="Surfaces">
	<g id="Publishing_Surface">
		<g id="Outline_no_shadow">
			<path class="st0" d="M5,0h20.8c2.8,0,5,2.2,5,5v20c0,2.8-2.2,5-5,5H5c-2.8,0-5-2.2-5-5V5C0,2.2,2.2,0,5,0z"/>
		</g>
	</g>
</g>
<g id="Outlined_Mnemonics_Logos">
	<g id="Id">
		<path class="st1" d="M11.2,7.8V21c0,0.1-0.1,0.2-0.2,0.2H8.5c-0.1,0-0.2-0.1-0.2-0.2V7.8c0-0.1,0.1-0.2,0.2-0.2H11
			C11.1,7.7,11.1,7.7,11.2,7.8C11.2,7.8,11.2,7.8,11.2,7.8z"/>
		<path class="st1" d="M18.5,21.4c-0.9,0-1.9-0.2-2.8-0.6c-0.8-0.4-1.5-1-1.9-1.7c-0.5-0.8-0.7-1.8-0.7-2.9c0-0.9,0.2-1.9,0.7-2.7
			c0.5-0.8,1.2-1.5,2-2c0.9-0.5,2-0.7,3.2-0.7c0.1,0,0.2,0,0.3,0s0.2,0,0.4,0V6.7c0-0.1,0-0.1,0.1-0.1h2.6c0.1,0,0.1,0,0.1,0.1
			c0,0,0,0,0,0v12.2c0,0.2,0,0.5,0,0.8c0,0.3,0,0.5,0.1,0.7c0,0.1,0,0.2-0.1,0.2c-0.7,0.3-1.4,0.5-2.1,0.6
			C19.9,21.3,19.2,21.4,18.5,21.4z M19.8,18.8v-5.6c-0.1,0-0.2-0.1-0.3-0.1c-0.1,0-0.3,0-0.4,0c-0.5,0-1,0.1-1.4,0.3
			c-0.4,0.2-0.8,0.5-1.1,0.9s-0.4,1-0.4,1.6c0,0.4,0.1,0.9,0.2,1.3c0.1,0.3,0.3,0.7,0.6,0.9c0.2,0.2,0.5,0.4,0.9,0.5
			c0.3,0.1,0.7,0.2,1.1,0.2c0.2,0,0.4,0,0.5,0C19.5,18.9,19.7,18.9,19.8,18.8z"/>
	</g>
</g>
</svg>
