<?xml version="1.0" encoding="utf-8"?>
<!-- Generator: Adobe Illustrator 28.1.0, SVG Export Plug-In . SVG Version: 6.00 Build 0)  -->
<svg version="1.1" id="Layer_1" xmlns="http://www.w3.org/2000/svg" xmlns:xlink="http://www.w3.org/1999/xlink" x="0px" y="0px"
	 viewBox="0 0 30.8 30" style="enable-background:new 0 0 30.8 30;" xml:space="preserve">
<style type="text/css">
	.st0{fill:#31A8FF;}
	.st1{fill:#001E36;}
</style>
<g id="Surfaces">
	<g id="Photo_Surface">
		<g id="Outline_no_shadow">
			<path class="st0" d="M5,0h20.8c2.8,0,5,2.2,5,5v20c0,2.8-2.2,5-5,5H5c-2.8,0-5-2.2-5-5V5C0,2.2,2.2,0,5,0z"/>
		</g>
	</g>
</g>
<g id="Outlined_Mnemonics_Logos">
	<g id="Ps">
		<path class="st1" d="M6.9,21V7.8c0-0.1,0-0.1,0.1-0.1c0.2,0,0.4,0,0.7,0c0.3,0,0.6,0,1,0c0.3,0,0.7,0,1.1,0c0.4,0,0.8,0,1.2,0
			c1.1,0,1.9,0.1,2.6,0.4c0.6,0.2,1.2,0.6,1.7,1.1c0.4,0.4,0.7,0.9,0.9,1.5c0.2,0.5,0.3,1.1,0.3,1.7c0,1.1-0.3,2-0.8,2.7
			c-0.5,0.7-1.2,1.3-2.1,1.6c-0.9,0.3-1.8,0.4-2.9,0.4c-0.3,0-0.5,0-0.6,0s-0.3,0-0.6,0V21c0,0.1-0.1,0.2-0.1,0.2s0,0-0.1,0H7.1
			C7,21.2,6.9,21.2,6.9,21z M9.7,10.2v4.3c0.2,0,0.3,0,0.5,0h0.7c0.5,0,1-0.1,1.5-0.2c0.4-0.1,0.8-0.4,1.1-0.7s0.4-0.8,0.4-1.3
			c0-0.4-0.1-0.8-0.3-1.1s-0.5-0.6-0.9-0.7c-0.5-0.2-1-0.3-1.5-0.3c-0.3,0-0.6,0-0.9,0C10,10.2,9.8,10.2,9.7,10.2L9.7,10.2z"/>
		<path class="st1" d="M24.6,13.7c-0.4-0.2-0.8-0.3-1.2-0.4c-0.5-0.1-0.9-0.2-1.4-0.2c-0.3,0-0.5,0-0.8,0.1c-0.2,0-0.3,0.1-0.4,0.3
			c-0.1,0.1-0.1,0.2-0.1,0.3s0.1,0.2,0.1,0.3c0.1,0.1,0.3,0.3,0.4,0.3c0.3,0.2,0.6,0.3,0.9,0.4c0.7,0.2,1.4,0.6,2,0.9
			c0.4,0.3,0.8,0.6,1,1.1c0.2,0.4,0.3,0.9,0.3,1.3c0,0.6-0.2,1.2-0.5,1.7c-0.4,0.5-0.9,0.9-1.4,1.1c-0.6,0.3-1.4,0.4-2.3,0.4
			c-0.6,0-1.2-0.1-1.7-0.2c-0.4-0.1-0.9-0.2-1.3-0.4c-0.2,0.1-0.2,0.1-0.2,0v-2.2c0,0,0-0.1,0.1-0.1h0.1c0.5,0.3,1,0.5,1.6,0.6
			c0.5,0.1,1,0.2,1.5,0.2s0.8-0.1,1.1-0.2c0.2-0.1,0.3-0.3,0.3-0.5s-0.1-0.3-0.3-0.5c-0.2-0.2-0.6-0.4-1.3-0.6
			c-0.7-0.2-1.3-0.5-1.8-0.9c-0.4-0.3-0.7-0.7-1-1.1c-0.2-0.5-0.3-1-0.3-1.4c0-0.6,0.2-1.1,0.4-1.6c0.3-0.5,0.8-0.9,1.3-1.2
			c0.6-0.3,1.4-0.4,2.3-0.4c0.5,0,1.1,0,1.6,0.1c0.4,0.1,0.8,0.2,1.1,0.3c0.1,0,0.1,0.1,0.1,0.1c0,0.1,0,0.1,0,0.2v2.1
			C24.8,13.7,24.8,13.7,24.6,13.7C24.7,13.7,24.7,13.7,24.6,13.7z"/>
	</g>
</g>
</svg>
